<svg width="16" height="16" viewBox="0 0 16 16" fill="none" xmlns="http://www.w3.org/2000/svg">
<path d="M8.08132 15.8499C3.75945 15.8655 0.2032 12.2687 0.30945 7.86553C0.40945 3.68115 3.8782 0.221776 8.1907 0.271776C12.4626 0.321776 15.9876 3.87803 15.8782 8.26553C15.7751 12.4374 12.3344 15.8749 8.08132 15.8499ZM7.18757 12.1155C6.80632 11.9937 6.41882 11.903 6.06257 11.7437C5.33757 11.4187 4.8782 10.8562 4.73132 10.0655C4.63757 9.55303 4.67507 9.0374 4.73757 8.5249C4.79382 8.07178 4.92507 7.6499 5.26882 7.32178C5.29382 7.29678 5.29695 7.2249 5.28132 7.1874C5.1157 6.73428 5.13445 6.28115 5.26882 5.82178C5.30945 5.68428 5.37507 5.66865 5.49382 5.70615C5.80632 5.80303 6.05945 5.99053 6.27507 6.22803C6.3907 6.35303 6.49382 6.49053 6.6032 6.62178C7.2532 6.1999 9.11257 6.1999 9.79382 6.61553C9.92507 6.4624 10.0501 6.30303 10.1907 6.15615C10.4001 5.94053 10.6438 5.7749 10.9407 5.69365C11.0376 5.66553 11.0907 5.6874 11.1251 5.79053C11.2782 6.24365 11.3063 6.69678 11.1251 7.1499C11.0907 7.24053 11.0938 7.2999 11.1657 7.36865C11.3813 7.5749 11.5126 7.83428 11.5813 8.1249C11.7126 8.66553 11.7407 9.21865 11.7032 9.76865C11.6626 10.3593 11.4407 10.878 11.0063 11.2937C10.6407 11.6405 10.2032 11.8468 9.72195 11.9687C9.54695 12.0124 9.37195 12.0437 9.18445 12.0812C9.42507 12.4499 9.48445 12.8499 9.47507 13.2687C9.4657 13.7155 9.47195 14.1655 9.47195 14.6124C9.47195 14.6655 9.47507 14.7218 9.4782 14.778C12.3313 14.2593 15.2126 11.4187 14.8969 7.48428C14.6001 3.73115 11.2782 0.849901 7.43445 1.21865C3.84382 1.5624 0.962575 4.76553 1.28757 8.64678C1.59695 12.3187 4.57195 14.5187 6.90007 14.8062C6.90007 14.5405 6.90007 14.2749 6.90007 14.0062C6.77195 14.0249 6.65632 14.0405 6.54382 14.053C5.70632 14.1468 5.0407 13.7718 4.66882 13.0249C4.4657 12.6155 4.25007 12.2062 3.85007 11.9437C3.80632 11.9155 3.78132 11.8624 3.74382 11.8155C3.7782 11.7905 3.79382 11.778 3.81257 11.7687C3.83757 11.7593 3.86257 11.7562 3.88757 11.753C4.16882 11.7343 4.43445 11.7843 4.64382 11.9812C4.78132 12.1093 4.90632 12.2624 5.00945 12.4218C5.4032 13.0374 6.08132 13.2968 6.77195 13.0905C6.8657 13.0624 6.91882 13.0218 6.9282 12.9124C6.94695 12.6187 7.0282 12.3405 7.18757 12.1155Z" fill="url(#paint0_linear_24_9)"/>
<defs>
<linearGradient id="paint0_linear_24_9" x1="8.0939" y1="0.27124" x2="8.0939" y2="15.85" gradientUnits="userSpaceOnUse">
<stop stop-color="#6CB6FF"/>
<stop offset="1" stop-color="#407CD7"/>
</linearGradient>
</defs>
</svg>
