<svg width="16" height="16" viewBox="0 0 16 16" fill="none" xmlns="http://www.w3.org/2000/svg">
<g clip-path="url(#clip0_20_96)">
<path d="M4.04572 1.95431C4.04883 2.35354 3.89473 2.73797 3.61673 3.02452C3.33873 3.31108 2.95915 3.47675 2.56001 3.48574C2.16169 3.47113 1.78421 3.30405 1.50558 3.01903C1.22695 2.73402 1.06846 2.35286 1.06287 1.95431C1.08018 1.56601 1.2445 1.19882 1.52251 0.92718C1.80051 0.655538 2.17141 0.499771 2.56001 0.491455C2.94747 0.499926 3.31706 0.65608 3.59322 0.92799C3.86938 1.1999 4.03125 1.56703 4.04572 1.95431ZM1.22287 6.20574C1.22287 5.32574 1.78287 5.46288 2.56001 5.46288C3.33715 5.46288 3.88572 5.32574 3.88572 6.20574V14.7772C3.88572 15.6686 3.32572 15.4857 2.56001 15.4857C1.79429 15.4857 1.22287 15.6686 1.22287 14.7772V6.20574Z" stroke="url(#paint0_linear_20_96)" stroke-width="1.14286" stroke-linecap="round" stroke-linejoin="round"/>
<path d="M6.19434 6.2057C6.19434 5.71428 6.37719 5.53142 6.66291 5.47428C6.94862 5.41713 7.93148 5.47428 8.27434 5.47428C8.61719 5.47428 8.75434 6.03428 8.74291 6.45713C9.03619 6.06353 9.42556 5.75176 9.87378 5.55166C10.322 5.35156 10.8141 5.26983 11.3029 5.31428C11.7829 5.28493 12.2638 5.3569 12.7142 5.52551C13.1646 5.69412 13.5745 5.9556 13.9172 6.29296C14.26 6.63032 14.5279 7.03601 14.7036 7.48368C14.8794 7.93135 14.9589 8.41099 14.9372 8.89142V14.7428C14.9372 15.6343 14.3886 15.4514 13.6115 15.4514C12.8343 15.4514 12.2858 15.6343 12.2858 14.7428V10.1714C12.3059 9.93614 12.2751 9.6993 12.1955 9.47697C12.116 9.25464 11.9895 9.05203 11.8247 8.88291C11.6599 8.71378 11.4607 8.5821 11.2405 8.4968C11.0203 8.4115 10.7843 8.37459 10.5486 8.38856C10.314 8.3826 10.0808 8.42655 9.86441 8.51749C9.64805 8.60844 9.45347 8.74431 9.29356 8.9161C9.13365 9.0879 9.01205 9.2917 8.93683 9.51402C8.8616 9.73634 8.83446 9.97211 8.85719 10.2057V14.7771C8.85719 15.6686 8.29719 15.4857 7.52005 15.4857C6.74291 15.4857 6.19434 15.6686 6.19434 14.7771V6.2057Z" stroke="url(#paint1_linear_20_96)" stroke-width="1.14286" stroke-linecap="round" stroke-linejoin="round"/>
</g>
<defs>
<linearGradient id="paint0_linear_20_96" x1="2.55432" y1="0.491455" x2="2.55432" y2="15.5012" gradientUnits="userSpaceOnUse">
<stop stop-color="#6CB6FF"/>
<stop offset="1" stop-color="#407CD7"/>
</linearGradient>
<linearGradient id="paint1_linear_20_96" x1="10.5675" y1="5.30249" x2="10.5675" y2="15.5012" gradientUnits="userSpaceOnUse">
<stop stop-color="#6CB6FF"/>
<stop offset="1" stop-color="#407CD7"/>
</linearGradient>
<clipPath id="clip0_20_96">
<rect width="16" height="16" fill="white"/>
</clipPath>
</defs>
</svg>
