<svg width="313" height="47" viewBox="0 0 313 47" fill="none" xmlns="http://www.w3.org/2000/svg">
<path d="M0.400024 36V30.192H4.72002V8.30401H0.400024V2.49601H16.336V8.30401H12.016V30.192H16.336V36H0.400024Z" fill="#1A1A1A"/>
<path d="M40.6548 36C39.3748 36 38.3028 35.6 37.4388 34.8C36.6068 34 36.0788 32.928 35.8548 31.584H35.5668C35.1828 33.216 34.3348 34.464 33.0228 35.328C31.7108 36.16 30.0948 36.576 28.1748 36.576C25.6468 36.576 23.7108 35.904 22.3668 34.56C21.0228 33.216 20.3508 31.44 20.3508 29.232C20.3508 26.576 21.3108 24.608 23.2308 23.328C25.1828 22.016 27.8228 21.36 31.1508 21.36H35.1348V19.776C35.1348 18.56 34.8148 17.6 34.1748 16.896C33.5348 16.16 32.4628 15.792 30.9588 15.792C29.5508 15.792 28.4308 16.096 27.5988 16.704C26.7668 17.312 26.0788 18 25.5348 18.768L21.3108 15.024C22.3348 13.52 23.6148 12.352 25.1508 11.52C26.7188 10.656 28.8308 10.224 31.4868 10.224C35.0708 10.224 37.7588 11.008 39.5508 12.576C41.3428 14.144 42.2388 16.432 42.2388 19.44V30.48H44.5908V36H40.6548ZM30.8148 31.632C31.9988 31.632 33.0068 31.376 33.8388 30.864C34.7028 30.352 35.1348 29.52 35.1348 28.368V25.392H31.6788C28.8948 25.392 27.5028 26.336 27.5028 28.224V28.944C27.5028 29.872 27.7908 30.56 28.3668 31.008C28.9428 31.424 29.7588 31.632 30.8148 31.632Z" fill="#1A1A1A"/>
<path d="M72.6869 37.824C72.6869 39.168 72.4469 40.352 71.9669 41.376C71.5189 42.4 70.7669 43.264 69.7109 43.968C68.6549 44.704 67.2469 45.248 65.4869 45.6C63.7589 45.984 61.6149 46.176 59.0549 46.176C56.8789 46.176 55.0229 46.032 53.4869 45.744C51.9829 45.488 50.7509 45.104 49.7909 44.592C48.8629 44.112 48.1749 43.504 47.7269 42.768C47.3109 42.064 47.1029 41.248 47.1029 40.32C47.1029 38.912 47.5189 37.808 48.3509 37.008C49.1829 36.208 50.3349 35.712 51.8069 35.52V34.992C50.5909 34.768 49.6789 34.256 49.0709 33.456C48.4629 32.624 48.1589 31.664 48.1589 30.576C48.1589 29.904 48.2869 29.328 48.5429 28.848C48.8309 28.336 49.1829 27.904 49.5989 27.552C50.0469 27.168 50.5589 26.864 51.1349 26.64C51.7109 26.416 52.2869 26.24 52.8629 26.112V25.92C51.3269 25.216 50.1909 24.256 49.4549 23.04C48.7189 21.792 48.3509 20.352 48.3509 18.72C48.3509 16.16 49.2309 14.112 50.9909 12.576C52.7829 11.008 55.5029 10.224 59.1509 10.224C60.8149 10.224 62.2389 10.384 63.4229 10.704V9.74401C63.4229 8.40001 63.7429 7.44001 64.3829 6.86401C65.0549 6.25601 65.9989 5.95201 67.2149 5.95201H71.1989V11.232H65.6309V11.52C67.1029 12.224 68.1909 13.2 68.8949 14.448C69.5989 15.664 69.9509 17.088 69.9509 18.72C69.9509 21.248 69.0549 23.28 67.2629 24.816C65.5029 26.32 62.7989 27.072 59.1509 27.072C57.5189 27.072 56.0309 26.896 54.6869 26.544C53.9509 27.024 53.5829 27.696 53.5829 28.56C53.5829 29.168 53.8069 29.648 54.2549 30C54.7349 30.32 55.5189 30.48 56.6069 30.48H63.9029C66.9749 30.48 69.1989 31.12 70.5749 32.4C71.9829 33.68 72.6869 35.488 72.6869 37.824ZM66.0149 38.784C66.0149 38.048 65.7269 37.488 65.1509 37.104C64.5749 36.72 63.5669 36.528 62.1269 36.528H53.4869C53.1669 36.848 52.9269 37.2 52.7669 37.584C52.6389 38 52.5749 38.4 52.5749 38.784C52.5749 39.712 52.9749 40.384 53.7749 40.8C54.5749 41.248 55.9349 41.472 57.8549 41.472H60.7349C62.6549 41.472 64.0149 41.248 64.8149 40.8C65.6149 40.384 66.0149 39.712 66.0149 38.784ZM59.1509 22.416C60.5589 22.416 61.5989 22.128 62.2709 21.552C62.9749 20.944 63.3269 20.08 63.3269 18.96V18.384C63.3269 17.264 62.9749 16.416 62.2709 15.84C61.5989 15.232 60.5589 14.928 59.1509 14.928C57.7429 14.928 56.6869 15.232 55.9829 15.84C55.3109 16.416 54.9749 17.264 54.9749 18.384V18.96C54.9749 20.08 55.3109 20.944 55.9829 21.552C56.6869 22.128 57.7429 22.416 59.1509 22.416Z" fill="#1A1A1A"/>
<path d="M85.786 36.576C83.93 36.576 82.266 36.272 80.794 35.664C79.354 35.056 78.122 34.176 77.098 33.024C76.106 31.872 75.338 30.48 74.794 28.848C74.25 27.216 73.978 25.392 73.978 23.376C73.978 21.36 74.25 19.536 74.794 17.904C75.338 16.272 76.106 14.896 77.098 13.776C78.122 12.624 79.354 11.744 80.794 11.136C82.266 10.528 83.93 10.224 85.786 10.224C87.642 10.224 89.29 10.528 90.73 11.136C92.202 11.744 93.434 12.624 94.426 13.776C95.45 14.896 96.234 16.272 96.778 17.904C97.322 19.536 97.594 21.36 97.594 23.376C97.594 25.392 97.322 27.216 96.778 28.848C96.234 30.48 95.45 31.872 94.426 33.024C93.434 34.176 92.202 35.056 90.73 35.664C89.29 36.272 87.642 36.576 85.786 36.576ZM85.786 30.96C87.194 30.96 88.282 30.528 89.05 29.664C89.818 28.8 90.202 27.568 90.202 25.968V20.832C90.202 19.232 89.818 18 89.05 17.136C88.282 16.272 87.194 15.84 85.786 15.84C84.378 15.84 83.29 16.272 82.522 17.136C81.754 18 81.37 19.232 81.37 20.832V25.968C81.37 27.568 81.754 28.8 82.522 29.664C83.29 30.528 84.378 30.96 85.786 30.96Z" fill="#1A1A1A"/>
<path d="M139.44 14.016H139.296L136.848 18.912L130.32 30.768L123.936 18.96L121.392 13.68H121.248V36H114.384V2.49601H122.112L130.32 18.192H130.416L138.528 2.49601H146.304V36H139.44V14.016Z" fill="#1A1A1A"/>
<path d="M171.952 36C170.672 36 169.6 35.6 168.736 34.8C167.904 34 167.376 32.928 167.152 31.584H166.864C166.48 33.216 165.632 34.464 164.32 35.328C163.008 36.16 161.392 36.576 159.472 36.576C156.944 36.576 155.008 35.904 153.664 34.56C152.32 33.216 151.648 31.44 151.648 29.232C151.648 26.576 152.608 24.608 154.528 23.328C156.48 22.016 159.12 21.36 162.448 21.36H166.432V19.776C166.432 18.56 166.112 17.6 165.472 16.896C164.832 16.16 163.76 15.792 162.256 15.792C160.848 15.792 159.728 16.096 158.896 16.704C158.064 17.312 157.376 18 156.832 18.768L152.608 15.024C153.632 13.52 154.912 12.352 156.448 11.52C158.016 10.656 160.128 10.224 162.784 10.224C166.368 10.224 169.056 11.008 170.848 12.576C172.64 14.144 173.536 16.432 173.536 19.44V30.48H175.888V36H171.952ZM162.112 31.632C163.296 31.632 164.304 31.376 165.136 30.864C166 30.352 166.432 29.52 166.432 28.368V25.392H162.976C160.192 25.392 158.8 26.336 158.8 28.224V28.944C158.8 29.872 159.088 30.56 159.664 31.008C160.24 31.424 161.056 31.632 162.112 31.632Z" fill="#1A1A1A"/>
<path d="M190.832 36.576C188.944 36.576 187.264 36.272 185.792 35.664C184.32 35.024 183.088 34.144 182.096 33.024C181.104 31.872 180.352 30.48 179.84 28.848C179.328 27.216 179.072 25.392 179.072 23.376C179.072 21.36 179.328 19.552 179.84 17.952C180.352 16.32 181.104 14.928 182.096 13.776C183.088 12.624 184.32 11.744 185.792 11.136C187.264 10.528 188.944 10.224 190.832 10.224C193.392 10.224 195.52 10.8 197.216 11.952C198.944 13.104 200.176 14.72 200.912 16.8L195.152 19.296C194.928 18.336 194.464 17.52 193.76 16.848C193.056 16.176 192.08 15.84 190.832 15.84C189.392 15.84 188.304 16.32 187.568 17.28C186.832 18.208 186.464 19.472 186.464 21.072V25.776C186.464 27.376 186.832 28.64 187.568 29.568C188.304 30.496 189.392 30.96 190.832 30.96C192.112 30.96 193.12 30.624 193.856 29.952C194.624 29.248 195.184 28.336 195.536 27.216L201.056 29.616C200.224 32.016 198.928 33.776 197.168 34.896C195.44 36.016 193.328 36.576 190.832 36.576Z" fill="#1A1A1A"/>
<path d="M205.453 0.480011H212.557V15.072H212.845C213.293 13.76 214.077 12.624 215.197 11.664C216.317 10.704 217.869 10.224 219.853 10.224C222.445 10.224 224.397 11.088 225.709 12.816C227.053 14.544 227.725 17.008 227.725 20.208V36H220.621V20.784C220.621 19.152 220.365 17.952 219.853 17.184C219.341 16.384 218.429 15.984 217.117 15.984C216.541 15.984 215.981 16.064 215.437 16.224C214.893 16.352 214.397 16.576 213.949 16.896C213.533 17.216 213.197 17.616 212.941 18.096C212.685 18.544 212.557 19.072 212.557 19.68V36H205.453V0.480011Z" fill="#1A1A1A"/>
<path d="M252.67 36C251.39 36 250.318 35.6 249.454 34.8C248.622 34 248.094 32.928 247.87 31.584H247.582C247.198 33.216 246.35 34.464 245.038 35.328C243.726 36.16 242.11 36.576 240.19 36.576C237.662 36.576 235.726 35.904 234.382 34.56C233.038 33.216 232.366 31.44 232.366 29.232C232.366 26.576 233.326 24.608 235.246 23.328C237.198 22.016 239.838 21.36 243.166 21.36H247.15V19.776C247.15 18.56 246.83 17.6 246.19 16.896C245.55 16.16 244.478 15.792 242.974 15.792C241.566 15.792 240.446 16.096 239.614 16.704C238.782 17.312 238.094 18 237.55 18.768L233.326 15.024C234.35 13.52 235.63 12.352 237.166 11.52C238.734 10.656 240.846 10.224 243.502 10.224C247.086 10.224 249.774 11.008 251.566 12.576C253.358 14.144 254.254 16.432 254.254 19.44V30.48H256.606V36H252.67ZM242.83 31.632C244.014 31.632 245.022 31.376 245.854 30.864C246.718 30.352 247.15 29.52 247.15 28.368V25.392H243.694C240.91 25.392 239.518 26.336 239.518 28.224V28.944C239.518 29.872 239.806 30.56 240.382 31.008C240.958 31.424 241.774 31.632 242.83 31.632Z" fill="#1A1A1A"/>
<path d="M276.831 31.776H276.591C276.399 32.448 276.095 33.088 275.679 33.696C275.263 34.272 274.751 34.784 274.143 35.232C273.567 35.648 272.895 35.968 272.127 36.192C271.391 36.448 270.623 36.576 269.823 36.576C266.623 36.576 264.207 35.456 262.575 33.216C260.943 30.944 260.127 27.664 260.127 23.376C260.127 19.088 260.943 15.824 262.575 13.584C264.207 11.344 266.623 10.224 269.823 10.224C271.455 10.224 272.895 10.672 274.143 11.568C275.423 12.464 276.239 13.616 276.591 15.024H276.831V0.480011H283.935V36H276.831V31.776ZM272.175 30.816C273.519 30.816 274.623 30.496 275.487 29.856C276.383 29.184 276.831 28.272 276.831 27.12V19.68C276.831 18.528 276.383 17.632 275.487 16.992C274.623 16.32 273.519 15.984 272.175 15.984C270.831 15.984 269.711 16.464 268.815 17.424C267.951 18.352 267.519 19.616 267.519 21.216V25.584C267.519 27.184 267.951 28.464 268.815 29.424C269.711 30.352 270.831 30.816 272.175 30.816Z" fill="#1A1A1A"/>
<path d="M300.802 36.576C298.946 36.576 297.282 36.272 295.81 35.664C294.37 35.056 293.138 34.176 292.114 33.024C291.122 31.872 290.354 30.48 289.81 28.848C289.266 27.216 288.994 25.392 288.994 23.376C288.994 21.36 289.266 19.536 289.81 17.904C290.354 16.272 291.122 14.896 292.114 13.776C293.138 12.624 294.37 11.744 295.81 11.136C297.282 10.528 298.946 10.224 300.802 10.224C302.658 10.224 304.306 10.528 305.746 11.136C307.218 11.744 308.45 12.624 309.442 13.776C310.466 14.896 311.25 16.272 311.794 17.904C312.338 19.536 312.61 21.36 312.61 23.376C312.61 25.392 312.338 27.216 311.794 28.848C311.25 30.48 310.466 31.872 309.442 33.024C308.45 34.176 307.218 35.056 305.746 35.664C304.306 36.272 302.658 36.576 300.802 36.576ZM300.802 30.96C302.21 30.96 303.298 30.528 304.066 29.664C304.834 28.8 305.218 27.568 305.218 25.968V20.832C305.218 19.232 304.834 18 304.066 17.136C303.298 16.272 302.21 15.84 300.802 15.84C299.394 15.84 298.306 16.272 297.538 17.136C296.77 18 296.386 19.232 296.386 20.832V25.968C296.386 27.568 296.77 28.8 297.538 29.664C298.306 30.528 299.394 30.96 300.802 30.96Z" fill="#1A1A1A"/>
</svg>
